Coordinates
version=1
nRows=10
nColumns=63
inDegrees=yes

Units are S.I. units (second, meters, Newtons, ...)
If the header above contains a line with 'inDegrees', this indicates whether rotational values are in degrees (yes) or radians (no).

endheader
time	pelvis_tilt	pelvis_list	pelvis_rotation	pelvis_tx	pelvis_ty	pelvis_tz	hip_flexion_r	hip_adduction_r	hip_rotation_r	knee_angle_r	knee_angle_r_beta	ankle_angle_r	subtalar_angle_r	mtp_angle_r	hip_flexion_l	hip_adduction_l	hip_rotation_l	knee_angle_l	knee_angle_l_beta	ankle_angle_l	subtalar_angle_l	mtp_angle_l	L5_S1_Flex_Ext	L5_S1_Lat_Bending	L5_S1_axial_rotation	L4_L5_Flex_Ext	L4_L5_Lat_Bending	L4_L5_axial_rotation	L3_L4_Flex_Ext	L3_L4_Lat_Bending	L3_L4_axial_rotation	L2_L3_Flex_Ext	L2_L3_Lat_Bending	L2_L3_axial_rotation	L1_L2_Flex_Ext	L1_L2_Lat_Bending	L1_L2_axial_rotation	L1_T12_Flex_Ext	L1_T12_Lat_Bending	L1_T12_axial_rotation	Abs_r3	Abs_r2	Abs_r1	Abs_t1	Abs_t2	neck_flexion	neck_bending	neck_rotation	arm_flex_r	arm_add_r	arm_rot_r	elbow_flex_r	pro_sup_r	wrist_flex_r	wrist_dev_r	arm_flex_l	arm_add_l	arm_rot_l	elbow_flex_l	pro_sup_l	wrist_flex_l	wrist_dev_l
2.733333	13.842797	-33.672756	103.352241	0.122551	0.782259	0.134219	70.129528	-3.138282	-9.268327	80.558538	1.406012	73.337358	4.122773	0.000000	76.785059	6.510936	10.067734	88.656304	1.547344	59.175497	-13.835577	0.000000	0.988279	3.489140	0.181516	1.835334	4.640556	0.192861	1.623644	8.483495	0.192861	1.129505	8.483495	0.158827	0.917716	7.115054	0.147482	0.564703	5.404678	0.136137	7.059181	39.469847	1.009539	0.000000	0.000000	28.502944	1.056150	34.876541	43.314516	-27.775904	192.440310	6.136816	6.790401	-7.225528	-4.299827	24.484704	5.596065	146.561924	1.743672	-0.659348	-2.911761	-11.899949
2.750000	14.413885	-33.224131	103.095835	0.125804	0.792382	0.132017	69.033563	-1.423105	-9.133281	78.843493	1.376079	72.455935	3.232313	0.000000	75.983351	5.182057	10.403673	87.672449	1.530173	59.332836	-13.563738	0.000000	0.978715	3.446176	0.147047	1.817572	4.583414	0.156238	1.607931	8.379033	0.156238	1.118573	8.379033	0.128666	0.908835	7.027442	0.119476	0.559238	5.338127	0.110285	6.990863	38.983833	0.817833	0.000000	0.000000	28.501557	1.751265	36.997426	43.545629	-27.916198	188.164067	6.173522	7.067217	-7.376781	-4.558983	24.405734	5.784474	139.682724	2.562818	3.497300	-4.252076	-12.050244
2.766667	14.528856	-32.814202	102.597364	0.129147	0.802497	0.130085	68.014076	0.046737	-8.635429	77.232186	1.347956	71.491113	2.284198	0.000000	75.132344	3.999824	10.341703	86.580295	1.511111	59.469727	-13.250941	0.000000	0.977924	3.354198	0.133573	1.816103	4.461083	0.141921	1.606632	8.155397	0.141921	1.117670	8.155397	0.116876	0.908100	6.839881	0.108528	0.558786	5.195653	0.100180	6.985215	37.943360	0.742893	0.000000	0.000000	28.501619	2.351399	38.796718	43.621469	-27.918039	183.538356	6.259685	6.818815	-7.400622	-4.877408	24.751471	5.922896	138.013225	2.315730	3.038252	-5.103499	-12.699835
2.783333	14.170078	-32.428609	101.894606	0.132556	0.812481	0.128484	67.040904	1.230570	-7.783415	75.723869	1.321631	70.477553	1.211025	0.000000	74.217301	3.010134	9.891254	85.380486	1.490171	59.509942	-12.897507	0.000000	0.984916	3.209372	0.143792	1.829088	4.268465	0.152779	1.618119	7.803267	0.152779	1.125661	7.803267	0.125818	0.914593	6.544551	0.116831	0.562781	4.971317	0.107844	7.035159	36.305057	0.799727	0.000000	0.000000	28.504416	2.777113	39.981192	43.519545	-27.879855	177.159439	6.519491	6.416150	-7.255245	-5.175364	25.176313	5.850648	136.631211	2.031719	2.590291	-5.606686	-13.462722
2.800000	13.449027	-32.021975	101.062656	0.136014	0.822453	0.127158	65.996619	2.123192	-6.699697	74.266862	1.296201	69.448325	0.041210	0.000000	73.165552	2.217968	9.147564	84.060330	1.467130	59.421335	-12.515825	0.000000	0.994972	3.021176	0.193986	1.847763	4.018164	0.206110	1.634640	7.345687	0.206110	1.137154	7.345687	0.169738	0.923931	6.160782	0.157613	0.568527	4.679802	0.145489	7.106988	34.176147	1.078890	0.000000	0.000000	28.511413	2.838543	40.105847	43.174931	-27.892611	168.991330	6.890030	5.910393	-7.013561	-5.469376	25.693873	5.659585	135.896965	1.725781	2.204485	-5.788353	-14.349028
2.816667	12.492335	-31.537557	100.204833	0.139392	0.832599	0.126070	64.778342	2.739643	-5.528062	72.784947	1.270337	68.411163	-1.180805	0.000000	71.917096	1.628534	8.250281	82.604128	1.441714	59.205504	-12.114780	0.000000	1.000887	2.804214	0.280337	1.858748	3.729605	0.297858	1.644358	6.818167	0.297858	1.143914	6.818167	0.245295	0.929424	5.718354	0.227774	0.571907	4.343728	0.210253	7.149238	31.721835	1.559152	0.000000	0.000000	28.523132	2.526254	39.117082	42.609192	-27.949639	160.180192	7.257341	5.315343	-6.780937	-5.769602	26.301222	5.420570	135.935610	1.415386	1.993064	-5.734344	-15.366344
2.833333	11.362694	-30.908556	99.323161	0.142673	0.843127	0.125146	63.298305	3.126535	-4.296828	71.221557	1.243051	67.372938	-2.406427	0.000000	70.384587	1.211580	7.252610	80.979573	1.413360	58.878208	-11.702719	0.000000	0.991444	2.566447	0.409847	1.841210	3.413375	0.435463	1.628843	6.240060	0.435463	1.133121	6.240060	0.358617	0.920655	5.233499	0.333001	0.566511	3.975427	0.307386	7.081783	29.032166	2.279449	0.000000	0.000000	28.532175	1.881810	36.975757	41.792049	-27.977268	151.975842	7.401494	4.709697	-6.433648	-6.143634	26.992786	5.179027	136.879592	1.131682	1.770202	-5.636848	-16.464864
2.850000	10.204480	-30.109296	98.518463	0.145655	0.854167	0.124364	61.505246	3.328912	-3.161773	69.492754	1.212877	66.326411	-3.565872	0.000000	68.561890	0.941452	6.305729	79.187122	1.382076	58.418837	-11.307952	0.000000	0.962843	2.326783	0.562180	1.788096	3.094622	0.597316	1.581855	5.657341	0.597316	1.100433	5.657341	0.491907	0.894096	4.744776	0.456771	0.550168	3.604187	0.421635	6.877491	26.321036	3.126675	0.000000	0.000000	28.522534	0.982669	33.947552	40.794814	-27.970054	145.727689	7.211424	4.149315	-6.180325	-6.555778	27.738286	4.968014	138.539353	0.896394	1.616535	-5.614473	-17.584684
2.866667	9.080359	-29.136160	97.792542	0.148263	0.865756	0.123691	59.391010	3.401111	-2.155291	67.551005	1.178987	65.257497	-4.604403	0.000000	66.452804	0.772997	5.452101	77.225831	1.347845	57.818170	-10.970295	0.000000	0.912033	2.094595	0.728308	1.693736	2.785812	0.773827	1.498378	5.092799	0.773827	1.042362	5.092799	0.637269	0.846913	4.271299	0.591750	0.521135	3.244528	0.546231	6.514558	23.694481	4.050629	0.000000	0.000000	28.481863	-0.138886	30.243790	39.704749	-27.899764	141.579903	6.723270	3.843502	-6.198779	-6.977905	28.514723	4.779243	140.629547	0.726155	1.493516	-5.556164	-18.685722
2.883333	8.066190	-28.011885	97.170071	0.150443	0.877836	0.123104	56.979072	3.399256	-1.334271	65.359811	1.140744	64.142418	-5.484992	0.000000	64.104636	0.658682	4.747180	75.114938	1.311003	57.063108	-10.738784	0.000000	0.840672	1.879668	0.893853	1.561213	2.499958	0.949719	1.381141	4.570225	0.949719	0.960805	4.570225	0.782122	0.780648	3.833019	0.726256	0.480360	2.911606	0.670390	6.004839	21.263180	4.971344	0.000000	0.000000	28.411046	-1.440014	26.111603	38.600628	-27.715732	139.557904	5.975772	3.804937	-6.502884	-7.427245	29.306864	4.588417	142.909582	0.620689	1.372273	-5.184267	-19.767761
